<?xml version="1.0" encoding="UTF-8"?>
<svg width="24px" height="24px" viewBox="0 0 24 24" version="1.1" xmlns="http://www.w3.org/2000/svg">
    <path fill="currentColor" d="M12.738 18.701c-.831-1.635-1.805-3.287-3.708-3.287-.574 0-1.265.095-1.978.487.16-1.17.616-2.189 1.363-2.949 4.543-4.029 10.342-5.207 14.169-5.549 0 0 .646-.566 1.335-.499 0 0 .52-.044.553.648.033.691-.977.995-.977.995-.343.11-2.143.443-5.555 1.841-.596 2.029.002 3.076 1.017 4.297 1.677 2.02 2.313 2.86 2.313 4.682 0 2.837-2.52 4.47-5.002 4.47-2.48 0-4.719-1.688-4.719-4.47 0-2.119 1.347-3.076 2.593-4.577zm0 0c-.831-1.635-1.805-3.287-3.708-3.287-.574 0-1.265.095-1.978.487.16-1.17.616-2.189 1.363-2.949 4.543-4.029 10.342-5.207 14.169-5.549 0 0 .646-.566 1.335-.499 0 0 .52-.044.553.648.033.691-.977.995-.977.995-.343.11-2.143.443-5.555 1.841-.596 2.029.002 3.076 1.017 4.297 1.677 2.02 2.313 2.86 2.313 4.682 0 2.837-2.52 4.47-5.002 4.47-2.48 0-4.719-1.688-4.719-4.47 0-2.119 1.347-3.076 2.593-4.577z"/>
</svg> 